<mxfile host="app.diagrams.net" modified="2022-09-23T02:56:55.853Z" agent="5.0 (Windows NT 10.0; Win64; x64) AppleWebKit/537.36 (KHTML, like Gecko) Chrome/105.0.0.0 Safari/537.36" etag="YOjZ7bSpFHCJkNSR2vxV" version="20.3.5" type="github" pages="7">
  <diagram name="Page-1" id="55a83fd1-7818-8e21-69c5-c3457e3827bb">
    <mxGraphModel dx="1422" dy="762" grid="0" gridSize="10" guides="1" tooltips="1" connect="1" arrows="1" fold="1" page="1" pageScale="1" pageWidth="1100" pageHeight="850" background="none" math="0" shadow="0">
      <root>
        <mxCell id="0" />
        <mxCell id="1" parent="0" />
        <mxCell id="Jrop07dh5K4UwpsyfzBu-4" value="数据库" style="image;html=1;image=img/lib/clip_art/computers/Database_128x128.png" parent="1" vertex="1">
          <mxGeometry x="874" y="353" width="80" height="80" as="geometry" />
        </mxCell>
        <mxCell id="Jrop07dh5K4UwpsyfzBu-41" style="edgeStyle=orthogonalEdgeStyle;rounded=0;orthogonalLoop=1;jettySize=auto;html=1;entryX=0;entryY=0.5;entryDx=0;entryDy=0;" parent="1" source="Jrop07dh5K4UwpsyfzBu-5" target="Jrop07dh5K4UwpsyfzBu-6" edge="1">
          <mxGeometry relative="1" as="geometry" />
        </mxCell>
        <mxCell id="Jrop07dh5K4UwpsyfzBu-42" style="edgeStyle=orthogonalEdgeStyle;rounded=0;orthogonalLoop=1;jettySize=auto;html=1;entryX=0;entryY=0.5;entryDx=0;entryDy=0;" parent="1" source="Jrop07dh5K4UwpsyfzBu-5" target="Jrop07dh5K4UwpsyfzBu-7" edge="1">
          <mxGeometry relative="1" as="geometry" />
        </mxCell>
        <mxCell id="Jrop07dh5K4UwpsyfzBu-43" style="edgeStyle=orthogonalEdgeStyle;rounded=0;orthogonalLoop=1;jettySize=auto;html=1;entryX=0;entryY=0.5;entryDx=0;entryDy=0;" parent="1" source="Jrop07dh5K4UwpsyfzBu-5" target="Jrop07dh5K4UwpsyfzBu-8" edge="1">
          <mxGeometry relative="1" as="geometry" />
        </mxCell>
        <mxCell id="Jrop07dh5K4UwpsyfzBu-44" style="edgeStyle=orthogonalEdgeStyle;rounded=0;orthogonalLoop=1;jettySize=auto;html=1;entryX=0;entryY=0.5;entryDx=0;entryDy=0;" parent="1" source="Jrop07dh5K4UwpsyfzBu-5" target="Jrop07dh5K4UwpsyfzBu-10" edge="1">
          <mxGeometry relative="1" as="geometry">
            <Array as="points">
              <mxPoint x="246" y="393" />
              <mxPoint x="246" y="568" />
            </Array>
          </mxGeometry>
        </mxCell>
        <mxCell id="Jrop07dh5K4UwpsyfzBu-45" style="edgeStyle=orthogonalEdgeStyle;rounded=0;orthogonalLoop=1;jettySize=auto;html=1;entryX=0;entryY=0.5;entryDx=0;entryDy=0;" parent="1" source="Jrop07dh5K4UwpsyfzBu-5" target="Jrop07dh5K4UwpsyfzBu-9" edge="1">
          <mxGeometry relative="1" as="geometry">
            <Array as="points">
              <mxPoint x="246" y="393" />
              <mxPoint x="246" y="681" />
            </Array>
          </mxGeometry>
        </mxCell>
        <mxCell id="Jrop07dh5K4UwpsyfzBu-5" value="用户" style="image;html=1;image=img/lib/clip_art/people/Suit_Man_Blue_128x128.png" parent="1" vertex="1">
          <mxGeometry x="58" y="353" width="80" height="80" as="geometry" />
        </mxCell>
        <mxCell id="Jrop07dh5K4UwpsyfzBu-33" style="edgeStyle=orthogonalEdgeStyle;rounded=0;orthogonalLoop=1;jettySize=auto;html=1;" parent="1" source="Jrop07dh5K4UwpsyfzBu-6" target="Jrop07dh5K4UwpsyfzBu-32" edge="1">
          <mxGeometry relative="1" as="geometry" />
        </mxCell>
        <mxCell id="Jrop07dh5K4UwpsyfzBu-6" value="文本" style="image;html=1;image=img/lib/clip_art/general/Full_Folder_128x128.png" parent="1" vertex="1">
          <mxGeometry x="353" y="100" width="80" height="80" as="geometry" />
        </mxCell>
        <mxCell id="Jrop07dh5K4UwpsyfzBu-34" style="edgeStyle=orthogonalEdgeStyle;rounded=0;orthogonalLoop=1;jettySize=auto;html=1;" parent="1" source="Jrop07dh5K4UwpsyfzBu-7" target="Jrop07dh5K4UwpsyfzBu-32" edge="1">
          <mxGeometry relative="1" as="geometry" />
        </mxCell>
        <mxCell id="Jrop07dh5K4UwpsyfzBu-7" value="cad" style="image;html=1;image=img/lib/clip_art/general/Full_Folder_128x128.png" parent="1" vertex="1">
          <mxGeometry x="352" y="239" width="80" height="80" as="geometry" />
        </mxCell>
        <mxCell id="Jrop07dh5K4UwpsyfzBu-35" style="edgeStyle=orthogonalEdgeStyle;rounded=0;orthogonalLoop=1;jettySize=auto;html=1;" parent="1" source="Jrop07dh5K4UwpsyfzBu-8" target="Jrop07dh5K4UwpsyfzBu-32" edge="1">
          <mxGeometry relative="1" as="geometry" />
        </mxCell>
        <mxCell id="Jrop07dh5K4UwpsyfzBu-8" value="图片" style="image;html=1;image=img/lib/clip_art/general/Full_Folder_128x128.png" parent="1" vertex="1">
          <mxGeometry x="364" y="353" width="80" height="80" as="geometry" />
        </mxCell>
        <mxCell id="Jrop07dh5K4UwpsyfzBu-37" style="edgeStyle=orthogonalEdgeStyle;rounded=0;orthogonalLoop=1;jettySize=auto;html=1;" parent="1" source="Jrop07dh5K4UwpsyfzBu-9" target="Jrop07dh5K4UwpsyfzBu-32" edge="1">
          <mxGeometry relative="1" as="geometry" />
        </mxCell>
        <mxCell id="Jrop07dh5K4UwpsyfzBu-9" value="压缩文件" style="image;html=1;image=img/lib/clip_art/general/Full_Folder_128x128.png" parent="1" vertex="1">
          <mxGeometry x="377" y="641" width="80" height="80" as="geometry" />
        </mxCell>
        <mxCell id="Jrop07dh5K4UwpsyfzBu-36" style="edgeStyle=orthogonalEdgeStyle;rounded=0;orthogonalLoop=1;jettySize=auto;html=1;" parent="1" source="Jrop07dh5K4UwpsyfzBu-10" target="Jrop07dh5K4UwpsyfzBu-32" edge="1">
          <mxGeometry relative="1" as="geometry" />
        </mxCell>
        <mxCell id="Jrop07dh5K4UwpsyfzBu-10" value="offiece文件" style="image;html=1;image=img/lib/clip_art/general/Full_Folder_128x128.png" parent="1" vertex="1">
          <mxGeometry x="354" y="528" width="80" height="80" as="geometry" />
        </mxCell>
        <mxCell id="Jrop07dh5K4UwpsyfzBu-39" style="edgeStyle=orthogonalEdgeStyle;rounded=0;orthogonalLoop=1;jettySize=auto;html=1;" parent="1" source="Jrop07dh5K4UwpsyfzBu-32" target="Jrop07dh5K4UwpsyfzBu-4" edge="1">
          <mxGeometry relative="1" as="geometry" />
        </mxCell>
        <mxCell id="Jrop07dh5K4UwpsyfzBu-32" value="系统" style="image;html=1;image=img/lib/clip_art/computers/Monitor_128x128.png" parent="1" vertex="1">
          <mxGeometry x="595" y="353" width="80" height="80" as="geometry" />
        </mxCell>
      </root>
    </mxGraphModel>
  </diagram>
  <diagram id="Q1fn79x6gya3t55NEc7l" name="第 2 页">
    <mxGraphModel dx="1422" dy="762" grid="0" gridSize="10" guides="1" tooltips="1" connect="1" arrows="1" fold="1" page="1" pageScale="1" pageWidth="827" pageHeight="1169" math="0" shadow="0">
      <root>
        <mxCell id="0" />
        <mxCell id="1" parent="0" />
        <mxCell id="1w0yN2HF9at30i14Z13p-13" value="制作" style="edgeStyle=orthogonalEdgeStyle;rounded=0;orthogonalLoop=1;jettySize=auto;html=1;" parent="1" source="1w0yN2HF9at30i14Z13p-7" target="1w0yN2HF9at30i14Z13p-10" edge="1">
          <mxGeometry relative="1" as="geometry" />
        </mxCell>
        <mxCell id="1w0yN2HF9at30i14Z13p-7" value="用户" style="image;html=1;image=img/lib/clip_art/people/Suit_Man_Blue_128x128.png" parent="1" vertex="1">
          <mxGeometry x="387" y="335" width="80" height="80" as="geometry" />
        </mxCell>
        <mxCell id="1w0yN2HF9at30i14Z13p-8" value="工程资料数据库" style="image;html=1;image=img/lib/clip_art/computers/Database_128x128.png" parent="1" vertex="1">
          <mxGeometry x="174" y="617" width="80" height="80" as="geometry" />
        </mxCell>
        <mxCell id="1w0yN2HF9at30i14Z13p-14" value="收集" style="edgeStyle=orthogonalEdgeStyle;rounded=0;orthogonalLoop=1;jettySize=auto;html=1;" parent="1" source="1w0yN2HF9at30i14Z13p-9" target="1w0yN2HF9at30i14Z13p-7" edge="1">
          <mxGeometry relative="1" as="geometry" />
        </mxCell>
        <mxCell id="1w0yN2HF9at30i14Z13p-9" value="纸质文档" style="image;html=1;image=img/lib/clip_art/general/Full_Folder_128x128.png" parent="1" vertex="1">
          <mxGeometry x="174" y="335" width="80" height="80" as="geometry" />
        </mxCell>
        <mxCell id="1w0yN2HF9at30i14Z13p-12" value="上传" style="edgeStyle=orthogonalEdgeStyle;rounded=0;orthogonalLoop=1;jettySize=auto;html=1;" parent="1" source="1w0yN2HF9at30i14Z13p-10" target="1w0yN2HF9at30i14Z13p-11" edge="1">
          <mxGeometry relative="1" as="geometry" />
        </mxCell>
        <mxCell id="1w0yN2HF9at30i14Z13p-10" value="电子文档" style="image;html=1;image=img/lib/clip_art/general/Full_Folder_128x128.png" parent="1" vertex="1">
          <mxGeometry x="572" y="335" width="80" height="80" as="geometry" />
        </mxCell>
        <mxCell id="1w0yN2HF9at30i14Z13p-20" style="edgeStyle=orthogonalEdgeStyle;rounded=0;orthogonalLoop=1;jettySize=auto;html=1;" parent="1" source="1w0yN2HF9at30i14Z13p-11" target="1w0yN2HF9at30i14Z13p-17" edge="1">
          <mxGeometry relative="1" as="geometry" />
        </mxCell>
        <mxCell id="1w0yN2HF9at30i14Z13p-21" style="edgeStyle=orthogonalEdgeStyle;rounded=0;orthogonalLoop=1;jettySize=auto;html=1;" parent="1" source="1w0yN2HF9at30i14Z13p-11" target="1w0yN2HF9at30i14Z13p-16" edge="1">
          <mxGeometry relative="1" as="geometry" />
        </mxCell>
        <mxCell id="1w0yN2HF9at30i14Z13p-22" value="存储" style="edgeStyle=orthogonalEdgeStyle;rounded=0;orthogonalLoop=1;jettySize=auto;html=1;" parent="1" source="1w0yN2HF9at30i14Z13p-11" target="1w0yN2HF9at30i14Z13p-8" edge="1">
          <mxGeometry relative="1" as="geometry" />
        </mxCell>
        <mxCell id="1w0yN2HF9at30i14Z13p-11" value="系统" style="image;html=1;image=img/lib/clip_art/networking/Cloud_128x128.png" parent="1" vertex="1">
          <mxGeometry x="572" y="617" width="80" height="80" as="geometry" />
        </mxCell>
        <mxCell id="1w0yN2HF9at30i14Z13p-18" style="edgeStyle=orthogonalEdgeStyle;rounded=0;orthogonalLoop=1;jettySize=auto;html=1;" parent="1" source="1w0yN2HF9at30i14Z13p-16" target="1w0yN2HF9at30i14Z13p-7" edge="1">
          <mxGeometry relative="1" as="geometry" />
        </mxCell>
        <mxCell id="1w0yN2HF9at30i14Z13p-16" value="移动终端" style="image;html=1;image=img/lib/clip_art/telecommunication/BlackBerry_128x128.png" parent="1" vertex="1">
          <mxGeometry x="278" y="475" width="80" height="80" as="geometry" />
        </mxCell>
        <mxCell id="1w0yN2HF9at30i14Z13p-23" value="查看" style="edgeStyle=orthogonalEdgeStyle;rounded=0;orthogonalLoop=1;jettySize=auto;html=1;" parent="1" source="1w0yN2HF9at30i14Z13p-17" edge="1">
          <mxGeometry relative="1" as="geometry">
            <mxPoint x="427" y="417" as="targetPoint" />
          </mxGeometry>
        </mxCell>
        <mxCell id="1w0yN2HF9at30i14Z13p-17" value="电脑终端" style="image;html=1;image=img/lib/clip_art/computers/Monitor_Tower_128x128.png" parent="1" vertex="1">
          <mxGeometry x="471" y="475" width="80" height="80" as="geometry" />
        </mxCell>
      </root>
    </mxGraphModel>
  </diagram>
  <diagram id="ua8GOl7QaQJ1ybbivmt6" name="第 3 页">
    <mxGraphModel dx="1422" dy="762" grid="0" gridSize="10" guides="1" tooltips="1" connect="1" arrows="1" fold="1" page="1" pageScale="1" pageWidth="827" pageHeight="1169" math="0" shadow="0">
      <root>
        <mxCell id="0" />
        <mxCell id="1" parent="0" />
        <mxCell id="_qsaK2lSf2Yt7nLJXe9j-1" value="&lt;div style=&quot;&quot;&gt;&lt;b style=&quot;background-color: initial;&quot;&gt;项目A&lt;/b&gt;&lt;/div&gt;" style="rounded=0;whiteSpace=wrap;html=1;align=left;" parent="1" vertex="1">
          <mxGeometry x="70" y="199" width="709" height="121" as="geometry" />
        </mxCell>
        <mxCell id="_qsaK2lSf2Yt7nLJXe9j-7" style="edgeStyle=orthogonalEdgeStyle;rounded=0;orthogonalLoop=1;jettySize=auto;html=1;" parent="1" source="_qsaK2lSf2Yt7nLJXe9j-2" target="_qsaK2lSf2Yt7nLJXe9j-3" edge="1">
          <mxGeometry relative="1" as="geometry" />
        </mxCell>
        <mxCell id="_qsaK2lSf2Yt7nLJXe9j-2" value="版本1" style="image;html=1;image=img/lib/clip_art/general/Empty_Folder_128x128.png" parent="1" vertex="1">
          <mxGeometry x="120" y="210" width="80" height="80" as="geometry" />
        </mxCell>
        <mxCell id="_qsaK2lSf2Yt7nLJXe9j-8" style="edgeStyle=orthogonalEdgeStyle;rounded=0;orthogonalLoop=1;jettySize=auto;html=1;" parent="1" source="_qsaK2lSf2Yt7nLJXe9j-3" target="_qsaK2lSf2Yt7nLJXe9j-4" edge="1">
          <mxGeometry relative="1" as="geometry" />
        </mxCell>
        <mxCell id="_qsaK2lSf2Yt7nLJXe9j-3" value="版本2" style="image;html=1;image=img/lib/clip_art/general/Empty_Folder_128x128.png" parent="1" vertex="1">
          <mxGeometry x="275" y="210" width="80" height="80" as="geometry" />
        </mxCell>
        <mxCell id="_qsaK2lSf2Yt7nLJXe9j-9" style="edgeStyle=orthogonalEdgeStyle;rounded=0;orthogonalLoop=1;jettySize=auto;html=1;" parent="1" source="_qsaK2lSf2Yt7nLJXe9j-4" target="_qsaK2lSf2Yt7nLJXe9j-5" edge="1">
          <mxGeometry relative="1" as="geometry" />
        </mxCell>
        <mxCell id="_qsaK2lSf2Yt7nLJXe9j-4" value="版本3" style="image;html=1;image=img/lib/clip_art/general/Empty_Folder_128x128.png" parent="1" vertex="1">
          <mxGeometry x="438" y="210" width="80" height="80" as="geometry" />
        </mxCell>
        <mxCell id="_qsaK2lSf2Yt7nLJXe9j-5" value="版本4" style="image;html=1;image=img/lib/clip_art/general/Empty_Folder_128x128.png" parent="1" vertex="1">
          <mxGeometry x="621" y="209.5" width="80" height="80" as="geometry" />
        </mxCell>
        <mxCell id="_qsaK2lSf2Yt7nLJXe9j-10" value="&lt;div style=&quot;&quot;&gt;&lt;b style=&quot;background-color: initial;&quot;&gt;项目B&lt;/b&gt;&lt;/div&gt;" style="rounded=0;whiteSpace=wrap;html=1;align=left;" parent="1" vertex="1">
          <mxGeometry x="69" y="351" width="709" height="121" as="geometry" />
        </mxCell>
        <mxCell id="_qsaK2lSf2Yt7nLJXe9j-11" style="edgeStyle=orthogonalEdgeStyle;rounded=0;orthogonalLoop=1;jettySize=auto;html=1;" parent="1" source="_qsaK2lSf2Yt7nLJXe9j-12" target="_qsaK2lSf2Yt7nLJXe9j-14" edge="1">
          <mxGeometry relative="1" as="geometry" />
        </mxCell>
        <mxCell id="_qsaK2lSf2Yt7nLJXe9j-12" value="版本1" style="image;html=1;image=img/lib/clip_art/general/Empty_Folder_128x128.png" parent="1" vertex="1">
          <mxGeometry x="119" y="362" width="80" height="80" as="geometry" />
        </mxCell>
        <mxCell id="_qsaK2lSf2Yt7nLJXe9j-13" style="edgeStyle=orthogonalEdgeStyle;rounded=0;orthogonalLoop=1;jettySize=auto;html=1;" parent="1" source="_qsaK2lSf2Yt7nLJXe9j-14" target="_qsaK2lSf2Yt7nLJXe9j-16" edge="1">
          <mxGeometry relative="1" as="geometry" />
        </mxCell>
        <mxCell id="_qsaK2lSf2Yt7nLJXe9j-14" value="版本2" style="image;html=1;image=img/lib/clip_art/general/Empty_Folder_128x128.png" parent="1" vertex="1">
          <mxGeometry x="274" y="362" width="80" height="80" as="geometry" />
        </mxCell>
        <mxCell id="_qsaK2lSf2Yt7nLJXe9j-15" style="edgeStyle=orthogonalEdgeStyle;rounded=0;orthogonalLoop=1;jettySize=auto;html=1;" parent="1" source="_qsaK2lSf2Yt7nLJXe9j-16" target="_qsaK2lSf2Yt7nLJXe9j-17" edge="1">
          <mxGeometry relative="1" as="geometry" />
        </mxCell>
        <mxCell id="_qsaK2lSf2Yt7nLJXe9j-16" value="版本3" style="image;html=1;image=img/lib/clip_art/general/Empty_Folder_128x128.png" parent="1" vertex="1">
          <mxGeometry x="437" y="362" width="80" height="80" as="geometry" />
        </mxCell>
        <mxCell id="_qsaK2lSf2Yt7nLJXe9j-17" value="版本4" style="image;html=1;image=img/lib/clip_art/general/Empty_Folder_128x128.png" parent="1" vertex="1">
          <mxGeometry x="620" y="361.5" width="80" height="80" as="geometry" />
        </mxCell>
        <mxCell id="_qsaK2lSf2Yt7nLJXe9j-18" value="&lt;div style=&quot;&quot;&gt;&lt;b&gt;项目C&lt;/b&gt;&lt;/div&gt;" style="rounded=0;whiteSpace=wrap;html=1;align=left;" parent="1" vertex="1">
          <mxGeometry x="69" y="497" width="709" height="121" as="geometry" />
        </mxCell>
        <mxCell id="_qsaK2lSf2Yt7nLJXe9j-19" style="edgeStyle=orthogonalEdgeStyle;rounded=0;orthogonalLoop=1;jettySize=auto;html=1;" parent="1" source="_qsaK2lSf2Yt7nLJXe9j-20" target="_qsaK2lSf2Yt7nLJXe9j-22" edge="1">
          <mxGeometry relative="1" as="geometry" />
        </mxCell>
        <mxCell id="_qsaK2lSf2Yt7nLJXe9j-20" value="版本1" style="image;html=1;image=img/lib/clip_art/general/Empty_Folder_128x128.png" parent="1" vertex="1">
          <mxGeometry x="119" y="508" width="80" height="80" as="geometry" />
        </mxCell>
        <mxCell id="_qsaK2lSf2Yt7nLJXe9j-21" style="edgeStyle=orthogonalEdgeStyle;rounded=0;orthogonalLoop=1;jettySize=auto;html=1;" parent="1" source="_qsaK2lSf2Yt7nLJXe9j-22" target="_qsaK2lSf2Yt7nLJXe9j-24" edge="1">
          <mxGeometry relative="1" as="geometry" />
        </mxCell>
        <mxCell id="_qsaK2lSf2Yt7nLJXe9j-22" value="版本2" style="image;html=1;image=img/lib/clip_art/general/Empty_Folder_128x128.png" parent="1" vertex="1">
          <mxGeometry x="274" y="508" width="80" height="80" as="geometry" />
        </mxCell>
        <mxCell id="_qsaK2lSf2Yt7nLJXe9j-23" style="edgeStyle=orthogonalEdgeStyle;rounded=0;orthogonalLoop=1;jettySize=auto;html=1;" parent="1" source="_qsaK2lSf2Yt7nLJXe9j-24" target="_qsaK2lSf2Yt7nLJXe9j-25" edge="1">
          <mxGeometry relative="1" as="geometry" />
        </mxCell>
        <mxCell id="_qsaK2lSf2Yt7nLJXe9j-24" value="版本3" style="image;html=1;image=img/lib/clip_art/general/Empty_Folder_128x128.png" parent="1" vertex="1">
          <mxGeometry x="437" y="508" width="80" height="80" as="geometry" />
        </mxCell>
        <mxCell id="_qsaK2lSf2Yt7nLJXe9j-25" value="版本4" style="image;html=1;image=img/lib/clip_art/general/Empty_Folder_128x128.png" parent="1" vertex="1">
          <mxGeometry x="620" y="507.5" width="80" height="80" as="geometry" />
        </mxCell>
        <mxCell id="_qsaK2lSf2Yt7nLJXe9j-27" value="" style="endArrow=none;dashed=1;html=1;rounded=0;" parent="1" edge="1">
          <mxGeometry width="50" height="50" relative="1" as="geometry">
            <mxPoint x="226" y="708" as="sourcePoint" />
            <mxPoint x="226" y="3" as="targetPoint" />
          </mxGeometry>
        </mxCell>
        <mxCell id="_qsaK2lSf2Yt7nLJXe9j-28" value="" style="endArrow=none;dashed=1;html=1;rounded=0;" parent="1" edge="1">
          <mxGeometry width="50" height="50" relative="1" as="geometry">
            <mxPoint x="399" y="709" as="sourcePoint" />
            <mxPoint x="399" y="4" as="targetPoint" />
          </mxGeometry>
        </mxCell>
        <mxCell id="_qsaK2lSf2Yt7nLJXe9j-29" value="" style="endArrow=none;dashed=1;html=1;rounded=0;" parent="1" edge="1">
          <mxGeometry width="50" height="50" relative="1" as="geometry">
            <mxPoint x="563" y="708" as="sourcePoint" />
            <mxPoint x="563" y="3" as="targetPoint" />
          </mxGeometry>
        </mxCell>
        <mxCell id="_qsaK2lSf2Yt7nLJXe9j-30" value="" style="endArrow=none;dashed=1;html=1;rounded=0;startArrow=none;" parent="1" source="_qsaK2lSf2Yt7nLJXe9j-40" edge="1">
          <mxGeometry width="50" height="50" relative="1" as="geometry">
            <mxPoint x="59" y="708" as="sourcePoint" />
            <mxPoint x="59" y="3" as="targetPoint" />
          </mxGeometry>
        </mxCell>
        <mxCell id="_qsaK2lSf2Yt7nLJXe9j-32" value="查看" style="endArrow=classic;html=1;rounded=0;dashed=1;" parent="1" edge="1">
          <mxGeometry width="50" height="50" relative="1" as="geometry">
            <mxPoint x="228" y="173" as="sourcePoint" />
            <mxPoint x="58" y="177" as="targetPoint" />
          </mxGeometry>
        </mxCell>
        <mxCell id="_qsaK2lSf2Yt7nLJXe9j-33" value="" style="endArrow=classic;html=1;rounded=0;dashed=1;" parent="1" edge="1">
          <mxGeometry width="50" height="50" relative="1" as="geometry">
            <mxPoint x="392" y="133" as="sourcePoint" />
            <mxPoint x="58" y="136" as="targetPoint" />
          </mxGeometry>
        </mxCell>
        <mxCell id="_qsaK2lSf2Yt7nLJXe9j-39" value="查看" style="edgeLabel;html=1;align=center;verticalAlign=middle;resizable=0;points=[];" parent="_qsaK2lSf2Yt7nLJXe9j-33" vertex="1" connectable="0">
          <mxGeometry x="-0.1921" y="-3" relative="1" as="geometry">
            <mxPoint as="offset" />
          </mxGeometry>
        </mxCell>
        <mxCell id="_qsaK2lSf2Yt7nLJXe9j-34" value="" style="endArrow=classic;html=1;rounded=0;jumpSize=1;dashed=1;" parent="1" edge="1">
          <mxGeometry width="50" height="50" relative="1" as="geometry">
            <mxPoint x="564" y="97" as="sourcePoint" />
            <mxPoint x="59" y="103" as="targetPoint" />
          </mxGeometry>
        </mxCell>
        <mxCell id="_qsaK2lSf2Yt7nLJXe9j-35" value="查看" style="edgeLabel;html=1;align=center;verticalAlign=middle;resizable=0;points=[];" parent="_qsaK2lSf2Yt7nLJXe9j-34" vertex="1" connectable="0">
          <mxGeometry x="-0.1446" y="-1" relative="1" as="geometry">
            <mxPoint as="offset" />
          </mxGeometry>
        </mxCell>
        <mxCell id="_qsaK2lSf2Yt7nLJXe9j-36" value="" style="endArrow=none;dashed=1;html=1;rounded=0;" parent="1" edge="1">
          <mxGeometry width="50" height="50" relative="1" as="geometry">
            <mxPoint x="733" y="705" as="sourcePoint" />
            <mxPoint x="733" as="targetPoint" />
          </mxGeometry>
        </mxCell>
        <mxCell id="_qsaK2lSf2Yt7nLJXe9j-37" value="" style="endArrow=classic;html=1;rounded=0;jumpSize=1;dashed=1;" parent="1" edge="1">
          <mxGeometry width="50" height="50" relative="1" as="geometry">
            <mxPoint x="738" y="54" as="sourcePoint" />
            <mxPoint x="60" y="56" as="targetPoint" />
          </mxGeometry>
        </mxCell>
        <mxCell id="_qsaK2lSf2Yt7nLJXe9j-38" value="查看" style="edgeLabel;html=1;align=center;verticalAlign=middle;resizable=0;points=[];" parent="_qsaK2lSf2Yt7nLJXe9j-37" vertex="1" connectable="0">
          <mxGeometry x="-0.1446" y="-1" relative="1" as="geometry">
            <mxPoint as="offset" />
          </mxGeometry>
        </mxCell>
        <mxCell id="_qsaK2lSf2Yt7nLJXe9j-40" value="用户" style="image;html=1;image=img/lib/clip_art/people/Suit_Man_Blue_128x128.png" parent="1" vertex="1">
          <mxGeometry x="44" width="41" height="32" as="geometry" />
        </mxCell>
        <mxCell id="_qsaK2lSf2Yt7nLJXe9j-41" value="" style="endArrow=none;dashed=1;html=1;rounded=0;" parent="1" target="_qsaK2lSf2Yt7nLJXe9j-40" edge="1">
          <mxGeometry width="50" height="50" relative="1" as="geometry">
            <mxPoint x="59" y="708" as="sourcePoint" />
            <mxPoint x="59" y="3" as="targetPoint" />
          </mxGeometry>
        </mxCell>
      </root>
    </mxGraphModel>
  </diagram>
  <diagram id="mgmkToDXB2rkfZ0PKthm" name="第 4 页">
    <mxGraphModel dx="1422" dy="762" grid="0" gridSize="10" guides="1" tooltips="1" connect="1" arrows="1" fold="1" page="1" pageScale="1" pageWidth="827" pageHeight="1169" math="0" shadow="0">
      <root>
        <mxCell id="0" />
        <mxCell id="1" parent="0" />
        <mxCell id="hO95PxXwwMihxan6S_ca-9" value="方案资料" style="image;html=1;image=img/lib/clip_art/computers/Database_128x128.png" parent="1" vertex="1">
          <mxGeometry x="675" y="430" width="80" height="80" as="geometry" />
        </mxCell>
        <mxCell id="hO95PxXwwMihxan6S_ca-20" style="edgeStyle=orthogonalEdgeStyle;rounded=0;orthogonalLoop=1;jettySize=auto;html=1;" parent="1" source="hO95PxXwwMihxan6S_ca-10" target="hO95PxXwwMihxan6S_ca-19" edge="1">
          <mxGeometry relative="1" as="geometry" />
        </mxCell>
        <mxCell id="hO95PxXwwMihxan6S_ca-10" value="单位A" style="image;html=1;image=img/lib/clip_art/people/Suit_Man_128x128.png" parent="1" vertex="1">
          <mxGeometry x="57" y="553" width="80" height="80" as="geometry" />
        </mxCell>
        <mxCell id="hO95PxXwwMihxan6S_ca-21" style="edgeStyle=orthogonalEdgeStyle;rounded=0;orthogonalLoop=1;jettySize=auto;html=1;" parent="1" source="hO95PxXwwMihxan6S_ca-12" target="hO95PxXwwMihxan6S_ca-19" edge="1">
          <mxGeometry relative="1" as="geometry" />
        </mxCell>
        <mxCell id="hO95PxXwwMihxan6S_ca-12" value="单位B" style="image;html=1;image=img/lib/clip_art/people/Suit_Woman_Black_128x128.png" parent="1" vertex="1">
          <mxGeometry x="198" y="553" width="80" height="80" as="geometry" />
        </mxCell>
        <mxCell id="hO95PxXwwMihxan6S_ca-22" style="edgeStyle=orthogonalEdgeStyle;rounded=0;orthogonalLoop=1;jettySize=auto;html=1;" parent="1" source="hO95PxXwwMihxan6S_ca-13" target="hO95PxXwwMihxan6S_ca-19" edge="1">
          <mxGeometry relative="1" as="geometry" />
        </mxCell>
        <mxCell id="hO95PxXwwMihxan6S_ca-13" value="单位C" style="image;html=1;image=img/lib/clip_art/people/Construction_Worker_Woman_128x128.png" parent="1" vertex="1">
          <mxGeometry x="353" y="602" width="80" height="80" as="geometry" />
        </mxCell>
        <mxCell id="hO95PxXwwMihxan6S_ca-24" style="edgeStyle=orthogonalEdgeStyle;rounded=0;orthogonalLoop=1;jettySize=auto;html=1;" parent="1" source="hO95PxXwwMihxan6S_ca-14" target="hO95PxXwwMihxan6S_ca-19" edge="1">
          <mxGeometry relative="1" as="geometry" />
        </mxCell>
        <mxCell id="hO95PxXwwMihxan6S_ca-14" value="单位D" style="image;html=1;image=img/lib/clip_art/people/Doctor_Woman_Black_128x128.png" parent="1" vertex="1">
          <mxGeometry x="542" y="553" width="80" height="80" as="geometry" />
        </mxCell>
        <mxCell id="hO95PxXwwMihxan6S_ca-25" style="edgeStyle=orthogonalEdgeStyle;rounded=0;orthogonalLoop=1;jettySize=auto;html=1;" parent="1" source="hO95PxXwwMihxan6S_ca-16" target="hO95PxXwwMihxan6S_ca-19" edge="1">
          <mxGeometry relative="1" as="geometry" />
        </mxCell>
        <mxCell id="hO95PxXwwMihxan6S_ca-16" value="单位E" style="image;html=1;image=img/lib/clip_art/people/Tech_Man_128x128.png" parent="1" vertex="1">
          <mxGeometry x="707" y="553" width="80" height="80" as="geometry" />
        </mxCell>
        <mxCell id="hO95PxXwwMihxan6S_ca-17" value="技术资料" style="image;html=1;image=img/lib/clip_art/computers/Database_128x128.png" parent="1" vertex="1">
          <mxGeometry x="675" y="186" width="80" height="80" as="geometry" />
        </mxCell>
        <mxCell id="hO95PxXwwMihxan6S_ca-18" value="竣工资料" style="image;html=1;image=img/lib/clip_art/computers/Database_128x128.png" parent="1" vertex="1">
          <mxGeometry x="674" y="309" width="80" height="80" as="geometry" />
        </mxCell>
        <mxCell id="hO95PxXwwMihxan6S_ca-26" style="edgeStyle=orthogonalEdgeStyle;rounded=0;orthogonalLoop=1;jettySize=auto;html=1;entryX=0;entryY=0.5;entryDx=0;entryDy=0;" parent="1" source="hO95PxXwwMihxan6S_ca-19" target="hO95PxXwwMihxan6S_ca-17" edge="1">
          <mxGeometry relative="1" as="geometry" />
        </mxCell>
        <mxCell id="hO95PxXwwMihxan6S_ca-27" value="分类存储" style="edgeStyle=orthogonalEdgeStyle;rounded=0;orthogonalLoop=1;jettySize=auto;html=1;" parent="1" source="hO95PxXwwMihxan6S_ca-19" target="hO95PxXwwMihxan6S_ca-18" edge="1">
          <mxGeometry relative="1" as="geometry" />
        </mxCell>
        <mxCell id="hO95PxXwwMihxan6S_ca-28" style="edgeStyle=orthogonalEdgeStyle;rounded=0;orthogonalLoop=1;jettySize=auto;html=1;entryX=0;entryY=0.75;entryDx=0;entryDy=0;" parent="1" source="hO95PxXwwMihxan6S_ca-19" target="hO95PxXwwMihxan6S_ca-9" edge="1">
          <mxGeometry relative="1" as="geometry" />
        </mxCell>
        <mxCell id="hO95PxXwwMihxan6S_ca-19" value="系统" style="image;html=1;image=img/lib/clip_art/networking/Cloud_Computer_128x128.png" parent="1" vertex="1">
          <mxGeometry x="353" y="309" width="80" height="80" as="geometry" />
        </mxCell>
        <mxCell id="hO95PxXwwMihxan6S_ca-23" style="edgeStyle=orthogonalEdgeStyle;rounded=0;orthogonalLoop=1;jettySize=auto;html=1;exitX=0.5;exitY=1;exitDx=0;exitDy=0;" parent="1" source="hO95PxXwwMihxan6S_ca-14" target="hO95PxXwwMihxan6S_ca-14" edge="1">
          <mxGeometry relative="1" as="geometry" />
        </mxCell>
        <mxCell id="hO95PxXwwMihxan6S_ca-33" style="edgeStyle=orthogonalEdgeStyle;rounded=0;orthogonalLoop=1;jettySize=auto;html=1;" parent="1" source="hO95PxXwwMihxan6S_ca-29" target="hO95PxXwwMihxan6S_ca-32" edge="1">
          <mxGeometry relative="1" as="geometry" />
        </mxCell>
        <mxCell id="hO95PxXwwMihxan6S_ca-29" value="项目经理" style="image;html=1;image=img/lib/clip_art/people/Suit_Man_Blue_128x128.png" parent="1" vertex="1">
          <mxGeometry x="182" y="65" width="80" height="80" as="geometry" />
        </mxCell>
        <mxCell id="hO95PxXwwMihxan6S_ca-35" value="分权查看不同内容" style="edgeStyle=orthogonalEdgeStyle;rounded=0;orthogonalLoop=1;jettySize=auto;html=1;entryX=0.5;entryY=0;entryDx=0;entryDy=0;" parent="1" source="hO95PxXwwMihxan6S_ca-30" target="hO95PxXwwMihxan6S_ca-32" edge="1">
          <mxGeometry relative="1" as="geometry" />
        </mxCell>
        <mxCell id="hO95PxXwwMihxan6S_ca-30" value="施工队长" style="image;html=1;image=img/lib/clip_art/people/Suit_Man_Blue_128x128.png" parent="1" vertex="1">
          <mxGeometry x="353" y="9" width="80" height="80" as="geometry" />
        </mxCell>
        <mxCell id="hO95PxXwwMihxan6S_ca-34" style="edgeStyle=orthogonalEdgeStyle;rounded=0;orthogonalLoop=1;jettySize=auto;html=1;entryX=0.5;entryY=0;entryDx=0;entryDy=0;" parent="1" source="hO95PxXwwMihxan6S_ca-31" target="hO95PxXwwMihxan6S_ca-32" edge="1">
          <mxGeometry relative="1" as="geometry" />
        </mxCell>
        <mxCell id="hO95PxXwwMihxan6S_ca-31" value="监理" style="image;html=1;image=img/lib/clip_art/people/Suit_Man_Blue_128x128.png" parent="1" vertex="1">
          <mxGeometry x="535" y="66" width="80" height="80" as="geometry" />
        </mxCell>
        <mxCell id="hO95PxXwwMihxan6S_ca-36" style="edgeStyle=orthogonalEdgeStyle;rounded=0;orthogonalLoop=1;jettySize=auto;html=1;" parent="1" source="hO95PxXwwMihxan6S_ca-32" target="hO95PxXwwMihxan6S_ca-19" edge="1">
          <mxGeometry relative="1" as="geometry" />
        </mxCell>
        <mxCell id="hO95PxXwwMihxan6S_ca-32" value="" style="image;html=1;image=img/lib/clip_art/computers/Netbook_128x128.png" parent="1" vertex="1">
          <mxGeometry x="353" y="186" width="80" height="80" as="geometry" />
        </mxCell>
      </root>
    </mxGraphModel>
  </diagram>
  <diagram id="HDIigyBm5elJdQ5ZuJVp" name="系统同步">
    <mxGraphModel dx="1422" dy="706" grid="0" gridSize="10" guides="1" tooltips="1" connect="1" arrows="1" fold="1" page="1" pageScale="1" pageWidth="827" pageHeight="1169" math="0" shadow="0">
      <root>
        <mxCell id="0" />
        <mxCell id="1" parent="0" />
        <mxCell id="UuhfU6rbhlQkF7W_OfxY-4" value="电脑端" style="image;html=1;image=img/lib/clip_art/computers/Laptop_128x128.png" parent="1" vertex="1">
          <mxGeometry x="228" y="508" width="80" height="80" as="geometry" />
        </mxCell>
        <mxCell id="UuhfU6rbhlQkF7W_OfxY-5" value="移动端" style="image;html=1;image=img/lib/clip_art/telecommunication/iPhone_128x128.png" parent="1" vertex="1">
          <mxGeometry x="218" y="274" width="80" height="80" as="geometry" />
        </mxCell>
        <mxCell id="UuhfU6rbhlQkF7W_OfxY-22" style="edgeStyle=orthogonalEdgeStyle;rounded=0;orthogonalLoop=1;jettySize=auto;html=1;" parent="1" source="UuhfU6rbhlQkF7W_OfxY-8" target="UuhfU6rbhlQkF7W_OfxY-20" edge="1">
          <mxGeometry relative="1" as="geometry" />
        </mxCell>
        <mxCell id="UuhfU6rbhlQkF7W_OfxY-24" value="分析" style="edgeLabel;html=1;align=center;verticalAlign=middle;resizable=0;points=[];" parent="UuhfU6rbhlQkF7W_OfxY-22" vertex="1" connectable="0">
          <mxGeometry x="-0.2512" y="-3" relative="1" as="geometry">
            <mxPoint as="offset" />
          </mxGeometry>
        </mxCell>
        <mxCell id="UuhfU6rbhlQkF7W_OfxY-8" value="规建管业务系统" style="image;html=1;image=img/lib/clip_art/computers/Server_128x128.png" parent="1" vertex="1">
          <mxGeometry x="479" y="261" width="80" height="80" as="geometry" />
        </mxCell>
        <mxCell id="UuhfU6rbhlQkF7W_OfxY-23" style="edgeStyle=orthogonalEdgeStyle;rounded=0;orthogonalLoop=1;jettySize=auto;html=1;" parent="1" source="UuhfU6rbhlQkF7W_OfxY-9" target="UuhfU6rbhlQkF7W_OfxY-20" edge="1">
          <mxGeometry relative="1" as="geometry" />
        </mxCell>
        <mxCell id="UuhfU6rbhlQkF7W_OfxY-25" value="分析" style="edgeLabel;html=1;align=center;verticalAlign=middle;resizable=0;points=[];" parent="UuhfU6rbhlQkF7W_OfxY-23" vertex="1" connectable="0">
          <mxGeometry x="-0.1636" y="-2" relative="1" as="geometry">
            <mxPoint as="offset" />
          </mxGeometry>
        </mxCell>
        <mxCell id="UuhfU6rbhlQkF7W_OfxY-9" value="中建科技系统" style="image;html=1;image=img/lib/clip_art/computers/Server_128x128.png" parent="1" vertex="1">
          <mxGeometry x="475" y="500" width="80" height="80" as="geometry" />
        </mxCell>
        <mxCell id="UuhfU6rbhlQkF7W_OfxY-10" value="同步" style="endArrow=classic;startArrow=classic;html=1;rounded=0;" parent="1" source="UuhfU6rbhlQkF7W_OfxY-9" edge="1">
          <mxGeometry width="50" height="50" relative="1" as="geometry">
            <mxPoint x="486" y="446" as="sourcePoint" />
            <mxPoint x="515" y="333" as="targetPoint" />
          </mxGeometry>
        </mxCell>
        <mxCell id="UuhfU6rbhlQkF7W_OfxY-13" value="&lt;div style=&quot;&quot;&gt;&lt;br&gt;&lt;/div&gt;" style="rounded=0;whiteSpace=wrap;html=1;fillColor=none;align=center;" parent="1" vertex="1">
          <mxGeometry x="445" y="251" width="336" height="366" as="geometry" />
        </mxCell>
        <mxCell id="UuhfU6rbhlQkF7W_OfxY-14" style="edgeStyle=orthogonalEdgeStyle;rounded=0;orthogonalLoop=1;jettySize=auto;html=1;" parent="1" source="UuhfU6rbhlQkF7W_OfxY-12" target="UuhfU6rbhlQkF7W_OfxY-13" edge="1">
          <mxGeometry relative="1" as="geometry" />
        </mxCell>
        <mxCell id="UuhfU6rbhlQkF7W_OfxY-12" value="" style="rounded=0;whiteSpace=wrap;html=1;fillColor=none;" parent="1" vertex="1">
          <mxGeometry x="208" y="251" width="125" height="366" as="geometry" />
        </mxCell>
        <mxCell id="UuhfU6rbhlQkF7W_OfxY-17" style="edgeStyle=orthogonalEdgeStyle;rounded=0;orthogonalLoop=1;jettySize=auto;html=1;entryX=-0.008;entryY=0.481;entryDx=0;entryDy=0;entryPerimeter=0;" parent="1" source="UuhfU6rbhlQkF7W_OfxY-15" target="UuhfU6rbhlQkF7W_OfxY-12" edge="1">
          <mxGeometry relative="1" as="geometry" />
        </mxCell>
        <mxCell id="UuhfU6rbhlQkF7W_OfxY-15" value="用户" style="image;html=1;image=img/lib/clip_art/people/Suit_Man_Blue_128x128.png;fillColor=none;" parent="1" vertex="1">
          <mxGeometry x="35" y="387" width="77" height="80" as="geometry" />
        </mxCell>
        <mxCell id="UuhfU6rbhlQkF7W_OfxY-20" value="人工智能" style="sketch=0;pointerEvents=1;shadow=0;dashed=0;html=1;strokeColor=none;fillColor=#505050;labelPosition=center;verticalLabelPosition=bottom;verticalAlign=top;outlineConnect=0;align=center;shape=mxgraph.office.users.online_user;" parent="1" vertex="1">
          <mxGeometry x="631" y="387" width="106" height="85.92" as="geometry" />
        </mxCell>
        <mxCell id="UuhfU6rbhlQkF7W_OfxY-26" value="端侧" style="rounded=0;whiteSpace=wrap;html=1;fillColor=none;strokeColor=none;" parent="1" vertex="1">
          <mxGeometry x="210.5" y="631" width="120" height="60" as="geometry" />
        </mxCell>
        <mxCell id="UuhfU6rbhlQkF7W_OfxY-27" value="云测" style="rounded=0;whiteSpace=wrap;html=1;fillColor=none;strokeColor=none;" parent="1" vertex="1">
          <mxGeometry x="553" y="630" width="120" height="60" as="geometry" />
        </mxCell>
      </root>
    </mxGraphModel>
  </diagram>
  <diagram id="JZZALJ0ULBEZXTWJ8GLo" name="电子化移交业务过程">
    <mxGraphModel dx="1422" dy="706" grid="1" gridSize="10" guides="1" tooltips="1" connect="1" arrows="1" fold="1" page="1" pageScale="1" pageWidth="827" pageHeight="1169" math="0" shadow="0">
      <root>
        <mxCell id="0" />
        <mxCell id="1" parent="0" />
        <mxCell id="UWjqmU1f9mJ7OEm-42wU-1" value="" style="rounded=0;whiteSpace=wrap;html=1;fillColor=#dae8fc;strokeColor=#6c8ebf;" vertex="1" parent="1">
          <mxGeometry x="474" y="130" width="300" height="290" as="geometry" />
        </mxCell>
        <mxCell id="UWjqmU1f9mJ7OEm-42wU-2" value="" style="rounded=0;whiteSpace=wrap;html=1;fillColor=#dae8fc;strokeColor=#6c8ebf;" vertex="1" parent="1">
          <mxGeometry x="54" y="130" width="300" height="290" as="geometry" />
        </mxCell>
        <mxCell id="UWjqmU1f9mJ7OEm-42wU-3" value="业主/业主项目组" style="points=[];aspect=fixed;html=1;align=center;shadow=0;dashed=0;image;image=img/lib/allied_telesis/buildings/Building_Cluster.svg;fillColor=none;labelBackgroundColor=none;" vertex="1" parent="1">
          <mxGeometry x="667" y="137.5" width="81.2" height="74.37" as="geometry" />
        </mxCell>
        <mxCell id="UWjqmU1f9mJ7OEm-42wU-4" style="edgeStyle=orthogonalEdgeStyle;rounded=0;orthogonalLoop=1;jettySize=auto;html=1;entryX=0;entryY=0.5;entryDx=0;entryDy=0;fillColor=#ffe6cc;strokeColor=#d79b00;" edge="1" parent="1" source="UWjqmU1f9mJ7OEm-42wU-6" target="UWjqmU1f9mJ7OEm-42wU-11">
          <mxGeometry relative="1" as="geometry" />
        </mxCell>
        <mxCell id="UWjqmU1f9mJ7OEm-42wU-5" value="模型、文件、数据" style="edgeLabel;html=1;align=center;verticalAlign=middle;resizable=0;points=[];" vertex="1" connectable="0" parent="UWjqmU1f9mJ7OEm-42wU-4">
          <mxGeometry x="-0.0833" y="3" relative="1" as="geometry">
            <mxPoint y="1" as="offset" />
          </mxGeometry>
        </mxCell>
        <mxCell id="UWjqmU1f9mJ7OEm-42wU-6" value="设计&lt;br&gt;&lt;br&gt;施工&lt;br&gt;&lt;br&gt;供应商" style="rounded=0;whiteSpace=wrap;html=1;absoluteArcSize=1;arcSize=14;strokeWidth=2;fillColor=#ffe6cc;dashed=1;strokeColor=#d79b00;" vertex="1" parent="1">
          <mxGeometry x="77" y="241.5" width="70" height="155" as="geometry" />
        </mxCell>
        <mxCell id="UWjqmU1f9mJ7OEm-42wU-7" style="edgeStyle=orthogonalEdgeStyle;rounded=0;orthogonalLoop=1;jettySize=auto;html=1;entryX=0;entryY=0.5;entryDx=0;entryDy=0;fontSize=13;" edge="1" parent="1" source="UWjqmU1f9mJ7OEm-42wU-11" target="UWjqmU1f9mJ7OEm-42wU-15">
          <mxGeometry relative="1" as="geometry" />
        </mxCell>
        <mxCell id="UWjqmU1f9mJ7OEm-42wU-8" style="edgeStyle=orthogonalEdgeStyle;rounded=0;orthogonalLoop=1;jettySize=auto;html=1;entryX=0;entryY=0.5;entryDx=0;entryDy=0;fontSize=13;" edge="1" parent="1" source="UWjqmU1f9mJ7OEm-42wU-11" target="UWjqmU1f9mJ7OEm-42wU-16">
          <mxGeometry relative="1" as="geometry" />
        </mxCell>
        <mxCell id="UWjqmU1f9mJ7OEm-42wU-9" style="edgeStyle=orthogonalEdgeStyle;rounded=0;orthogonalLoop=1;jettySize=auto;html=1;entryX=0;entryY=0.5;entryDx=0;entryDy=0;fontSize=13;" edge="1" parent="1" source="UWjqmU1f9mJ7OEm-42wU-11" target="UWjqmU1f9mJ7OEm-42wU-17">
          <mxGeometry relative="1" as="geometry" />
        </mxCell>
        <mxCell id="UWjqmU1f9mJ7OEm-42wU-10" style="edgeStyle=orthogonalEdgeStyle;rounded=0;orthogonalLoop=1;jettySize=auto;html=1;entryX=0;entryY=0.5;entryDx=0;entryDy=0;fontSize=13;" edge="1" parent="1" source="UWjqmU1f9mJ7OEm-42wU-11" target="UWjqmU1f9mJ7OEm-42wU-18">
          <mxGeometry relative="1" as="geometry" />
        </mxCell>
        <mxCell id="UWjqmU1f9mJ7OEm-42wU-11" value="接受&lt;br&gt;&lt;br&gt;校验" style="rounded=0;whiteSpace=wrap;html=1;absoluteArcSize=1;arcSize=14;strokeWidth=2;fillColor=#ffe6cc;dashed=1;strokeColor=#d79b00;" vertex="1" parent="1">
          <mxGeometry x="501" y="243.5" width="70" height="155" as="geometry" />
        </mxCell>
        <mxCell id="UWjqmU1f9mJ7OEm-42wU-12" style="edgeStyle=orthogonalEdgeStyle;rounded=0;orthogonalLoop=1;jettySize=auto;html=1;startArrow=none;" edge="1" parent="1" source="UWjqmU1f9mJ7OEm-42wU-19" target="UWjqmU1f9mJ7OEm-42wU-6">
          <mxGeometry relative="1" as="geometry" />
        </mxCell>
        <mxCell id="UWjqmU1f9mJ7OEm-42wU-13" value="&amp;nbsp; &amp;nbsp; &amp;nbsp; &amp;nbsp; &amp;nbsp; &amp;nbsp; &amp;nbsp;信息规范" style="rounded=0;whiteSpace=wrap;html=1;absoluteArcSize=1;arcSize=14;strokeWidth=2;fillColor=#ffe6cc;dashed=1;strokeColor=#d79b00;" vertex="1" parent="1">
          <mxGeometry x="515" y="158.5" width="106" height="42.37" as="geometry" />
        </mxCell>
        <mxCell id="UWjqmU1f9mJ7OEm-42wU-14" value="&lt;font style=&quot;font-size: 8px;&quot;&gt;模板规范&lt;/font&gt;" style="shape=document;whiteSpace=wrap;html=1;boundedLbl=1;rounded=0;labelBackgroundColor=none;fillColor=#ffe6cc;strokeColor=#d79b00;" vertex="1" parent="1">
          <mxGeometry x="522" y="165.26999999999998" width="39" height="28.82" as="geometry" />
        </mxCell>
        <mxCell id="UWjqmU1f9mJ7OEm-42wU-15" value="&lt;font style=&quot;line-height: 1.2; font-size: 13px;&quot;&gt;设计审查&lt;/font&gt;" style="rounded=0;whiteSpace=wrap;html=1;labelBackgroundColor=none;fontSize=8;dashed=1;" vertex="1" parent="1">
          <mxGeometry x="607" y="246.5" width="90" height="35" as="geometry" />
        </mxCell>
        <mxCell id="UWjqmU1f9mJ7OEm-42wU-16" value="&lt;font style=&quot;line-height: 1.2; font-size: 13px;&quot;&gt;施工管理&lt;/font&gt;" style="rounded=0;whiteSpace=wrap;html=1;labelBackgroundColor=none;fontSize=8;dashed=1;" vertex="1" parent="1">
          <mxGeometry x="607" y="288.5" width="90" height="35" as="geometry" />
        </mxCell>
        <mxCell id="UWjqmU1f9mJ7OEm-42wU-17" value="&lt;font style=&quot;line-height: 1.2; font-size: 13px;&quot;&gt;试车管理&lt;/font&gt;" style="rounded=0;whiteSpace=wrap;html=1;labelBackgroundColor=none;fontSize=8;dashed=1;" vertex="1" parent="1">
          <mxGeometry x="607" y="330.5" width="90" height="35" as="geometry" />
        </mxCell>
        <mxCell id="UWjqmU1f9mJ7OEm-42wU-18" value="&lt;span style=&quot;font-size: 13px;&quot;&gt;竣工资料&lt;/span&gt;" style="rounded=0;whiteSpace=wrap;html=1;labelBackgroundColor=none;fontSize=8;dashed=1;" vertex="1" parent="1">
          <mxGeometry x="608" y="372.5" width="90" height="35" as="geometry" />
        </mxCell>
        <mxCell id="UWjqmU1f9mJ7OEm-42wU-19" value="设计院/承包方" style="shape=mxgraph.cisco.buildings.university;sketch=0;html=1;pointerEvents=1;dashed=0;fillColor=#036897;strokeColor=#ffffff;strokeWidth=2;verticalLabelPosition=bottom;verticalAlign=top;align=center;outlineConnect=0;" vertex="1" parent="1">
          <mxGeometry x="207" y="154.68" width="125.47" height="50" as="geometry" />
        </mxCell>
        <mxCell id="UWjqmU1f9mJ7OEm-42wU-20" value="" style="edgeStyle=orthogonalEdgeStyle;rounded=0;orthogonalLoop=1;jettySize=auto;html=1;endArrow=none;" edge="1" parent="1" source="UWjqmU1f9mJ7OEm-42wU-13" target="UWjqmU1f9mJ7OEm-42wU-19">
          <mxGeometry relative="1" as="geometry">
            <mxPoint x="515" y="179.70000000000005" as="sourcePoint" />
            <mxPoint x="112" y="241.5" as="targetPoint" />
          </mxGeometry>
        </mxCell>
      </root>
    </mxGraphModel>
  </diagram>
  <diagram id="49LHTfjXNW1L9ALCSWeV" name="项目工程清单与项目模型关联">
    <mxGraphModel dx="1422" dy="762" grid="0" gridSize="10" guides="1" tooltips="1" connect="1" arrows="1" fold="1" page="1" pageScale="1" pageWidth="827" pageHeight="1169" math="0" shadow="0">
      <root>
        <mxCell id="0" />
        <mxCell id="1" parent="0" />
        <mxCell id="Hzc-VNlzktzZ9dfbU4g6-1" value="" style="rounded=0;whiteSpace=wrap;html=1;fillColor=none;dashed=1;" vertex="1" parent="1">
          <mxGeometry x="40" y="90" width="290" height="532" as="geometry" />
        </mxCell>
        <mxCell id="Hzc-VNlzktzZ9dfbU4g6-2" value="" style="aspect=fixed;perimeter=ellipsePerimeter;html=1;align=center;shadow=0;dashed=0;fontColor=#4277BB;labelBackgroundColor=#ffffff;fontSize=12;spacingTop=3;image;image=img/lib/ibm/applications/actionable_insight.svg;fillColor=none;" vertex="1" parent="1">
          <mxGeometry x="156.5" y="551" width="57" height="57" as="geometry" />
        </mxCell>
        <mxCell id="Hzc-VNlzktzZ9dfbU4g6-4" value="" style="rounded=0;whiteSpace=wrap;html=1;fillColor=none;dashed=1;" vertex="1" parent="1">
          <mxGeometry x="414" y="90" width="290" height="532" as="geometry" />
        </mxCell>
        <mxCell id="Hzc-VNlzktzZ9dfbU4g6-3" value="" style="aspect=fixed;perimeter=ellipsePerimeter;html=1;align=center;shadow=0;dashed=0;fontColor=#4277BB;labelBackgroundColor=#ffffff;fontSize=12;spacingTop=3;image;image=img/lib/ibm/applications/application_logic.svg;fillColor=none;" vertex="1" parent="1">
          <mxGeometry x="532" y="549.5" width="60" height="60" as="geometry" />
        </mxCell>
        <mxCell id="Hzc-VNlzktzZ9dfbU4g6-5" value="&lt;b&gt;算量插件系统&lt;/b&gt;" style="rounded=0;whiteSpace=wrap;html=1;fillColor=none;dashed=1;strokeColor=none;" vertex="1" parent="1">
          <mxGeometry x="95" y="110" width="180" height="80" as="geometry" />
        </mxCell>
        <mxCell id="Hzc-VNlzktzZ9dfbU4g6-21" style="edgeStyle=orthogonalEdgeStyle;rounded=0;orthogonalLoop=1;jettySize=auto;html=1;" edge="1" parent="1" source="Hzc-VNlzktzZ9dfbU4g6-6" target="Hzc-VNlzktzZ9dfbU4g6-4">
          <mxGeometry relative="1" as="geometry" />
        </mxCell>
        <mxCell id="Hzc-VNlzktzZ9dfbU4g6-6" value="项目算量（工程量信息清单）" style="rounded=0;whiteSpace=wrap;html=1;dashed=1;fillColor=#ffe6cc;strokeColor=#d79b00;" vertex="1" parent="1">
          <mxGeometry x="101" y="314.5" width="151" height="83" as="geometry" />
        </mxCell>
        <mxCell id="Hzc-VNlzktzZ9dfbU4g6-7" value="&lt;b&gt;BIM平台数据引擎&lt;/b&gt;" style="rounded=0;whiteSpace=wrap;html=1;fillColor=none;dashed=1;strokeColor=none;" vertex="1" parent="1">
          <mxGeometry x="469" y="102" width="180" height="80" as="geometry" />
        </mxCell>
        <mxCell id="Hzc-VNlzktzZ9dfbU4g6-16" style="edgeStyle=orthogonalEdgeStyle;rounded=0;orthogonalLoop=1;jettySize=auto;html=1;entryX=0.5;entryY=0;entryDx=0;entryDy=0;" edge="1" parent="1" source="Hzc-VNlzktzZ9dfbU4g6-8" target="Hzc-VNlzktzZ9dfbU4g6-14">
          <mxGeometry relative="1" as="geometry" />
        </mxCell>
        <mxCell id="Hzc-VNlzktzZ9dfbU4g6-8" value="数据计算规则（标准模型与清单的对应关系）" style="rounded=0;whiteSpace=wrap;html=1;dashed=1;fillColor=#d5e8d4;strokeColor=#82b366;" vertex="1" parent="1">
          <mxGeometry x="492" y="184" width="140" height="50" as="geometry" />
        </mxCell>
        <mxCell id="Hzc-VNlzktzZ9dfbU4g6-9" value="数据校验" style="rounded=0;whiteSpace=wrap;html=1;dashed=1;fillColor=#d5e8d4;strokeColor=#82b366;" vertex="1" parent="1">
          <mxGeometry x="444" y="480" width="88" height="39" as="geometry" />
        </mxCell>
        <mxCell id="Hzc-VNlzktzZ9dfbU4g6-10" value="审计日志" style="rounded=0;whiteSpace=wrap;html=1;dashed=1;fillColor=#d5e8d4;strokeColor=#82b366;" vertex="1" parent="1">
          <mxGeometry x="599" y="473" width="87" height="43" as="geometry" />
        </mxCell>
        <mxCell id="Hzc-VNlzktzZ9dfbU4g6-17" style="edgeStyle=orthogonalEdgeStyle;rounded=0;orthogonalLoop=1;jettySize=auto;html=1;exitX=1;exitY=0.5;exitDx=0;exitDy=0;entryX=0;entryY=0.5;entryDx=0;entryDy=0;" edge="1" parent="1" source="Hzc-VNlzktzZ9dfbU4g6-13" target="Hzc-VNlzktzZ9dfbU4g6-14">
          <mxGeometry relative="1" as="geometry" />
        </mxCell>
        <mxCell id="Hzc-VNlzktzZ9dfbU4g6-13" value="数据引擎工程量导入接口" style="rounded=0;whiteSpace=wrap;html=1;dashed=1;fillColor=#dae8fc;strokeColor=#6c8ebf;" vertex="1" parent="1">
          <mxGeometry x="444" y="311" width="68" height="118" as="geometry" />
        </mxCell>
        <mxCell id="Hzc-VNlzktzZ9dfbU4g6-18" style="edgeStyle=orthogonalEdgeStyle;rounded=0;orthogonalLoop=1;jettySize=auto;html=1;entryX=0;entryY=0.5;entryDx=0;entryDy=0;" edge="1" parent="1" source="Hzc-VNlzktzZ9dfbU4g6-14" target="Hzc-VNlzktzZ9dfbU4g6-15">
          <mxGeometry relative="1" as="geometry" />
        </mxCell>
        <mxCell id="Hzc-VNlzktzZ9dfbU4g6-19" style="edgeStyle=orthogonalEdgeStyle;rounded=0;orthogonalLoop=1;jettySize=auto;html=1;entryX=0.5;entryY=0;entryDx=0;entryDy=0;" edge="1" parent="1" source="Hzc-VNlzktzZ9dfbU4g6-14" target="Hzc-VNlzktzZ9dfbU4g6-9">
          <mxGeometry relative="1" as="geometry" />
        </mxCell>
        <mxCell id="Hzc-VNlzktzZ9dfbU4g6-14" value="计算规则" style="rounded=0;whiteSpace=wrap;html=1;dashed=1;fillColor=#dae8fc;strokeColor=#6c8ebf;" vertex="1" parent="1">
          <mxGeometry x="528" y="311" width="68" height="118" as="geometry" />
        </mxCell>
        <mxCell id="Hzc-VNlzktzZ9dfbU4g6-20" style="edgeStyle=orthogonalEdgeStyle;rounded=0;orthogonalLoop=1;jettySize=auto;html=1;" edge="1" parent="1" source="Hzc-VNlzktzZ9dfbU4g6-15" target="Hzc-VNlzktzZ9dfbU4g6-10">
          <mxGeometry relative="1" as="geometry" />
        </mxCell>
        <mxCell id="Hzc-VNlzktzZ9dfbU4g6-15" value="项目清单工程量与模型构建关联" style="rounded=0;whiteSpace=wrap;html=1;dashed=1;fillColor=#dae8fc;strokeColor=#6c8ebf;" vertex="1" parent="1">
          <mxGeometry x="618" y="311" width="68" height="118" as="geometry" />
        </mxCell>
      </root>
    </mxGraphModel>
  </diagram>
</mxfile>
